<?xml version="1.0" encoding="utf-8"?>
<!-- Generator: Adobe Illustrator 23.0.0, SVG Export Plug-In . SVG Version: 6.00 Build 0)  -->
<svg version="1.1" id="Layer_1" xmlns="http://www.w3.org/2000/svg" xmlns:xlink="http://www.w3.org/1999/xlink" x="0px" y="0px"
	 viewBox="0 0 482 110" style="enable-background:new 0 0 482 110;" xml:space="preserve">
<style type="text/css">
	.st0{fill:#FF4800;}
	.st1{fill:url(#SVGID_1_);}
	.st2{fill:url(#SVGID_2_);}
</style>
<g>
	<g>
		<path class="st0" d="M113.28,40.91h4.46v31.78h-4.46V40.91z M116.06,54.92h17.64v4.24h-17.64
			C116.06,59.16,116.06,54.92,116.06,54.92z M131.33,40.91h4.46v31.78h-4.46V40.91z"/>
		<path class="st0" d="M148.31,71.57c-1.69-0.96-2.99-2.34-3.92-4.11c-0.93-1.77-1.38-3.82-1.38-6.16v-9c0-2.33,0.46-4.39,1.38-6.16
			c0.93-1.77,2.23-3.14,3.92-4.11c1.69-0.96,3.64-1.45,5.86-1.45s4.17,0.49,5.86,1.45c1.69,0.96,2.99,2.34,3.92,4.11
			c0.93,1.77,1.39,3.82,1.39,6.16v9c0,2.33-0.47,4.39-1.39,6.16c-0.93,1.77-2.23,3.14-3.92,4.11s-3.64,1.45-5.86,1.45
			S150,72.53,148.31,71.57z M157.63,67.74c0.99-0.59,1.77-1.43,2.32-2.52s0.82-2.34,0.82-3.77v-9.31c0-1.43-0.27-2.69-0.82-3.77
			c-0.55-1.08-1.32-1.92-2.32-2.52c-0.99-0.59-2.15-0.89-3.46-0.89c-1.31,0-2.47,0.3-3.46,0.89c-0.99,0.59-1.77,1.43-2.32,2.52
			c-0.55,1.08-0.82,2.34-0.82,3.77v9.31c0,1.43,0.27,2.69,0.82,3.77c0.55,1.08,1.32,1.92,2.32,2.52c0.99,0.59,2.15,0.89,3.46,0.89
			C155.47,68.62,156.63,68.33,157.63,67.74z"/>
		<path class="st0" d="M168.18,40.91h22.42v4.24h-22.42V40.91z M177.16,43.51h4.46v29.17h-4.46V43.51z"/>
		<path class="st0" d="M213.36,73.02c0,0-0.69-0.15-2.05-0.44c-1.37-0.29-2.65-0.73-3.84-1.31c-1.18-0.59-2.3-1.31-3.33-2.19
			l2.78-3.41c1.21,1.04,2.55,1.84,4,2.36c1.45,0.52,3.03,0.79,4.74,0.79c2.3,0,4.09-0.43,5.35-1.28s1.9-2.06,1.9-3.62v-0.02
			c0-1.1-0.29-1.99-0.87-2.64s-1.32-1.13-2.23-1.44c-0.92-0.31-2.09-0.6-3.53-0.87c-0.04-0.01-0.09-0.02-0.14-0.02
			c-0.05,0-0.1-0.01-0.14-0.02l-0.33-0.07c-2.13-0.37-3.86-0.78-5.19-1.23c-1.33-0.46-2.48-1.29-3.42-2.52
			c-0.94-1.21-1.42-2.94-1.42-5.19v-0.02c0-1.97,0.44-3.65,1.32-5.03c0.89-1.39,2.17-2.45,3.86-3.18c1.69-0.73,3.72-1.09,6.1-1.09
			c1.13,0,2.26,0.12,3.35,0.37c1.09,0.25,2.19,0.62,3.25,1.1c1.07,0.49,2.12,1.1,3.15,1.85l-2.54,3.54c-1.21-0.89-2.42-1.55-3.62-2
			s-2.41-0.67-3.62-0.67c-2.17,0-3.86,0.44-5.06,1.3c-1.2,0.87-1.8,2.1-1.8,3.68v0.02c0,1.09,0.31,1.95,0.93,2.58
			c0.62,0.63,1.39,1.09,2.32,1.39c0.93,0.3,2.21,0.61,3.86,0.93c0.06,0.01,0.11,0.03,0.17,0.03c0.05,0.01,0.11,0.02,0.16,0.03
			c0.07,0.01,0.15,0.03,0.24,0.04c0.09,0.01,0.17,0.03,0.24,0.04c1.92,0.4,3.53,0.86,4.81,1.4c1.29,0.54,2.37,1.41,3.23,2.62
			c0.87,1.2,1.3,2.84,1.3,4.93v0.04c0,1.94-0.46,3.59-1.37,4.97c-0.92,1.37-2.25,2.43-3.99,3.14c-1.74,0.72-3.84,1.08-6.31,1.08
			C214.13,73.02,213.36,73.02,213.36,73.02z"/>
		<path class="st0" d="M233.66,40.91h4.46v31.78h-4.46V40.91z M235.82,40.91h18.24v4.24h-18.24V40.91z M235.82,54.79h15.84v4.24
			h-15.84L235.82,54.79L235.82,54.79z M235.82,68.46h18.24v4.24h-18.24V68.46z"/>
		<path class="st0" d="M269.05,40.91h3.8l11.71,31.78h-4.8l-8.8-25.63l-8.8,25.63h-4.8L269.05,40.91z M262.74,61.48h16.72v4.24
			h-16.72L262.74,61.48L262.74,61.48z"/>
		<path class="st0" d="M289.38,40.89h4.46v31.8h-4.46V40.89z M291.32,55.01h10.84c0.85,0,1.59-0.21,2.25-0.62
			c0.66-0.41,1.16-0.98,1.52-1.74c0.36-0.76,0.54-1.61,0.54-2.59c0-0.97-0.18-1.84-0.54-2.59c-0.36-0.75-0.86-1.33-1.51-1.74
			c-0.66-0.41-1.4-0.62-2.26-0.62h-10.84v-4.24h10.66c1.83,0,3.45,0.38,4.84,1.13c1.39,0.76,2.47,1.83,3.23,3.22
			c0.77,1.39,1.14,2.99,1.14,4.82s-0.39,3.43-1.15,4.82c-0.78,1.39-1.85,2.47-3.24,3.22c-1.39,0.76-2.99,1.13-4.81,1.13h-10.66
			L291.32,55.01L291.32,55.01z M299.98,58.27l4.44-1l8.13,15.43h-5.29L299.98,58.27z"/>
		<path class="st0" d="M325.65,73.02c0,0-0.84-0.49-2.51-1.46c-1.67-0.97-2.96-2.36-3.88-4.15c-0.92-1.79-1.37-3.87-1.37-6.23v-8.73
			c0-2.36,0.46-4.44,1.37-6.23c0.92-1.79,2.21-3.18,3.88-4.17c1.67-0.98,3.6-1.47,5.8-1.47c1.82,0,3.49,0.39,5.02,1.17
			c1.53,0.78,2.8,1.88,3.84,3.31c1.02,1.43,1.72,3.08,2.09,4.96h-4.57c-0.28-0.99-0.74-1.88-1.38-2.66
			c-0.65-0.78-1.41-1.38-2.29-1.8c-0.88-0.42-1.78-0.64-2.71-0.64c-1.29,0-2.44,0.31-3.41,0.93c-0.97,0.63-1.73,1.5-2.28,2.64
			c-0.55,1.13-0.81,2.45-0.81,3.95v8.72c0,1.48,0.27,2.79,0.81,3.94c0.54,1.14,1.29,2.02,2.28,2.64c0.97,0.62,2.11,0.93,3.41,0.93
			c0.94,0,1.85-0.2,2.72-0.59c0.87-0.4,1.62-0.97,2.28-1.75c0.65-0.78,1.11-1.69,1.38-2.76h4.57c-0.37,1.88-1.06,3.53-2.1,4.96
			c-1.03,1.43-2.32,2.54-3.85,3.31c-1.53,0.78-3.19,1.17-5,1.17C326.75,73.02,325.65,73.02,325.65,73.02z"/>
		<path class="st0" d="M346.23,40.91h4.46v31.78h-4.46V40.91z M349,54.92h17.64v4.24H349V54.92z M364.28,40.91h4.46v31.78h-4.46
			V40.91z"/>
		<path class="st0" d="M385.35,40.91h4.85l7.63,24.92l7.62-24.92h4.85l-10.35,31.78h-4.24L385.35,40.91z"/>
		<path class="st0" d="M419.35,72.69h-4.46V40.91h4.46V72.69z"/>
		<path class="st0" d="M427.21,40.91h4.46v31.78h-4.46V40.91z M429.37,40.91h18.24v4.24h-18.24V40.91z M429.37,54.79h15.84v4.24
			h-15.84V54.79z M429.37,68.46h18.24v4.24h-18.24V68.46z M444.6,36.37l-2.6,2.41l-4.26-3.28l-4.26,3.28l-2.6-2.41l6.86-5.33
			L444.6,36.37z M435.58,77.5h4.46v4.46h-4.46V77.5z"/>
		<path class="st0" d="M449.58,40.91H472v4.24h-22.42V40.91z M458.57,43.51h4.46v29.17h-4.46V43.51z"/>
	</g>
</g>
<g>
	<linearGradient id="SVGID_1_" gradientUnits="userSpaceOnUse" x1="19.0209" y1="17.7773" x2="67.459" y2="101.6746">
		<stop  offset="0" style="stop-color:#F7931E"/>
		<stop  offset="1" style="stop-color:#ED1C24"/>
	</linearGradient>
	<path class="st1" d="M78.05,86.56l-16.41-13.8c2.26-4.18,3.55-8.96,3.55-14.05c0-1.79-0.16-3.54-0.46-5.25v-0.01
		c-0.66-4.04,2.32-5.7,0.66-10.02c-1-2.99,0.66-6.97,3.65-10.3c-15.28,3.99-4.65,12.95-11.29,18.6c0.33-9.96-9.3-9.96-5.06-19.84
		c-1.25,2.57-3.24,2.24-4.17,4.84c-3.06-1.94-5.15-5.56-3.05-11.56c2.32-7.31-8.97-7.31-0.33-17.93
		c-5.31-1.66-10.63,3.32-11.29,9.96c-0.66,4.32-1.03,5.98-6.97,9.3c-6.01,3.65-1.33,7.64-7.82,12.14c1.84-5.5-3.01-5.83,1.84-10.94
		c2.91-3.4,0.33-5.52-2.21-9.72c1.71,4.74-2.69,9-4.1,11.39C9.65,37.7,7.12,40.45,6.13,56.97c-0.04,0.57-0.05,1.15-0.05,1.74
		c0,16.32,13.23,29.56,29.56,29.56c7.04,0,13.5-2.46,18.58-6.57l16.36,13.75c2.46,2.07,6.12,1.75,8.19-0.71
		C80.82,92.29,80.51,88.62,78.05,86.56z M35.5,71.66c-7.15,0-12.95-5.8-12.95-12.95c0-7.15,5.8-12.95,12.95-12.95
		s12.95,5.8,12.95,12.95C48.45,65.86,42.65,71.66,35.5,71.66z"/>
</g>
<linearGradient id="SVGID_2_" gradientUnits="userSpaceOnUse" x1="141.9333" y1="84.2065" x2="146.9155" y2="86.9703" gradientTransform="matrix(0.8901 0.4611 -0.554 0.9885 -19.7896 -124.6198)">
	<stop  offset="0" style="stop-color:#F7931E"/>
	<stop  offset="1" style="stop-color:#ED1C24"/>
</linearGradient>
<path class="st2" d="M63.88,22.36c-2.66,0.36-3.82,0.87-3.86,4.15c0.31,2.21,0.05,3.37-0.89,4.79c1.95-1.06,4.03-1.69,3.53-4.09
	C62.07,24.35,62.75,24.03,63.88,22.36z"/>
</svg>
