<?xml version="1.0" encoding="utf-8"?>
<!-- Generator: Adobe Illustrator 23.0.0, SVG Export Plug-In . SVG Version: 6.00 Build 0)  -->
<svg version="1.1" id="Layer_1" xmlns="http://www.w3.org/2000/svg" xmlns:xlink="http://www.w3.org/1999/xlink" x="0px" y="0px"
	 viewBox="0 0 395 395" style="enable-background:new 0 0 395 395;" xml:space="preserve">
<style type="text/css">
	.st0{fill:url(#SVGID_1_);}
	.st1{fill:url(#SVGID_2_);}
</style>
<g>
	
		<linearGradient id="SVGID_1_" gradientUnits="userSpaceOnUse" x1="136.9286" y1="577.7844" x2="269.6881" y2="807.7305" gradientTransform="matrix(1 0 0 1 0 -474)">
		<stop  offset="0" style="stop-color:#F7931E"/>
		<stop  offset="1" style="stop-color:#ED1C24"/>
	</linearGradient>
	<path class="st0" d="M298.8,292.3l-45-37.8c6.2-11.5,9.7-24.6,9.7-38.5c0-4.9-0.5-9.7-1.3-14.4l0,0c-1.8-11.1,6.4-15.7,1.8-27.5
		c-2.7-8.2,1.8-19.1,10-28.2c-41.9,10.9-12.7,35.5-31,51c0.9-27.3-25.5-27.3-13.9-54.4c-3.5,7.1-8.9,6.2-11.5,13.3
		c-8.4-5.3-14.1-15.2-8.4-31.7c6.4-20-24.6-20-0.9-49.2c-14.6-4.6-29.1,9.1-31,27.3c-1.8,11.8-2.8,16.4-19.1,25.5
		c-16.5,10-3.6,20.9-21.4,33.3c5-15.1-8.3-16,5-30c8-9.3,0.9-15.1-6.1-26.7c4.7,13-7.4,24.7-11.2,31.2
		c-13.5,22.8-20.4,30.4-23.1,75.6c-0.1,1.5-0.2,3.2-0.2,4.7c0,44.7,36.2,81,81,81c19.3,0,37.1-6.7,50.9-18l44.9,37.7
		c6.7,5.6,16.8,4.8,22.5-1.9C306.4,307.9,305.5,297.9,298.8,292.3z M182.1,251.4c-19.6,0-35.5-15.9-35.5-35.5s15.9-35.5,35.5-35.5
		s35.5,15.9,35.5,35.5S201.8,251.4,182.1,251.4z"/>
</g>
<linearGradient id="SVGID_2_" gradientUnits="userSpaceOnUse" x1="354.5642" y1="-10.2264" x2="371.1862" y2="-1.0053" gradientTransform="matrix(0.8901 0.4611 -0.554 0.9885 -85.8589 -43.4653)">
	<stop  offset="0" style="stop-color:#F7931E"/>
	<stop  offset="1" style="stop-color:#ED1C24"/>
</linearGradient>
<path class="st1" d="M248.7,104.3c-8.9,1.2-12.7,2.9-12.8,13.8c1,7.4,0.2,11.3-3,16c6.5-3.6,13.5-5.6,11.7-13.7
	C242.6,110.9,244.9,109.8,248.7,104.3z"/>
</svg>
